<?xml version="1.0" encoding="UTF-8"?>
<!DOCTYPE svg PUBLIC "-//W3C//DTD SVG 1.1//EN" "http://www.w3.org/Graphics/SVG/1.1/DTD/svg11.dtd">
<svg xmlns="http://www.w3.org/2000/svg" version="1.1" width="216px" height="216px" style="shape-rendering:geometricPrecision; text-rendering:geometricPrecision; image-rendering:optimizeQuality; fill-rule:evenodd; clip-rule:evenodd" xmlns:xlink="http://www.w3.org/1999/xlink">
<g><path style="opacity:1" fill="#561499" d="M 118.5,37.5 C 119.568,38.4345 120.901,38.7678 122.5,38.5C 122.326,41.8738 121.826,45.2072 121,48.5C 119.157,50.1712 116.991,51.1712 114.5,51.5C 108.974,51.1786 103.64,51.5119 98.5,52.5C 98.1667,52.5 97.8333,52.5 97.5,52.5C 93.8852,48.6645 92.2186,43.9979 92.5,38.5C 94.099,38.7678 95.4324,38.4345 96.5,37.5C 103.833,36.1667 111.167,36.1667 118.5,37.5 Z"/></g>
<g><path style="opacity:1" fill="#eac241" d="M 124.5,35.5 C 124.672,36.4916 124.338,37.1583 123.5,37.5C 121.833,37.5 120.167,37.5 118.5,37.5C 111.167,36.1667 103.833,36.1667 96.5,37.5C 93.9899,37.0535 91.9899,37.7202 90.5,39.5C 86.4346,40.2463 82.4346,41.2463 78.5,42.5C 72.364,44.3322 67.364,47.6655 63.5,52.5C 57.6885,56.6436 53.3552,61.9769 50.5,68.5C 48.0764,71.0078 46.4097,74.0078 45.5,77.5C 42.0101,88.9972 41.6767,100.664 44.5,112.5C 45.8333,114.167 45.8333,115.833 44.5,117.5C 43.5,117.833 42.8333,118.5 42.5,119.5C 42.1667,119.5 41.8333,119.5 41.5,119.5C 37.9241,103.645 38.9241,88.1449 44.5,73C 46.3536,70.421 48.0202,67.7543 49.5,65C 49.2716,64.6012 48.9382,64.4346 48.5,64.5C 56.3865,52.0847 67.3865,43.2514 81.5,38C 95.6242,33.2593 109.958,32.426 124.5,35.5 Z"/></g>
<g><path style="opacity:1" fill="#320859" d="M 118.5,37.5 C 120.167,37.5 121.833,37.5 123.5,37.5C 123.5,39.5 123.5,41.5 123.5,43.5C 123.515,49.4847 120.515,52.4847 114.5,52.5C 114.5,52.1667 114.5,51.8333 114.5,51.5C 116.991,51.1712 119.157,50.1712 121,48.5C 121.826,45.2072 122.326,41.8738 122.5,38.5C 120.901,38.7678 119.568,38.4345 118.5,37.5 Z"/></g>
<g><path style="opacity:1" fill="#f7e66f" d="M 90.5,39.5 C 90.9686,43.3122 91.9686,46.9789 93.5,50.5C 94.5769,51.7051 95.9102,52.3718 97.5,52.5C 97.8333,52.5 98.1667,52.5 98.5,52.5C 99.552,52.3505 100.552,52.5172 101.5,53C 98.7679,53.413 96.1013,54.0797 93.5,55C 96.4752,55.0435 99.4752,54.8769 102.5,54.5C 101.791,55.404 100.791,55.7373 99.5,55.5C 99.5,56.5 99.5,57.5 99.5,58.5C 94.7405,60.1955 90.0739,62.1955 85.5,64.5C 85.5,63.5 85.5,62.5 85.5,61.5C 84.5,61.5 83.5,61.5 82.5,61.5C 84.428,59.5259 86.7613,58.0259 89.5,57C 87.3049,56.5906 85.3049,57.0906 83.5,58.5C 81.4011,53.9647 78.5678,49.9647 75,46.5C 73.6703,47.5822 72.1703,48.2488 70.5,48.5C 73.1667,46.5 75.8333,44.5 78.5,42.5C 82.4346,41.2463 86.4346,40.2463 90.5,39.5 Z"/></g>
<g><path style="opacity:1" fill="#ddad32" d="M 124.5,35.5 C 141.636,39.477 155.469,48.477 166,62.5C 167.705,64.5766 168.872,66.91 169.5,69.5C 167.552,67.2113 165.552,64.878 163.5,62.5C 162.893,62.6236 162.56,62.9569 162.5,63.5C 159.86,60.1938 156.86,57.1938 153.5,54.5C 152.362,52.5589 150.696,52.3922 148.5,54C 141.323,57.4522 139.656,62.6189 143.5,69.5C 141.519,67.8564 139.519,66.1897 137.5,64.5C 137.167,64.6667 136.833,64.8333 136.5,65C 139.658,66.6961 139.992,68.5294 137.5,70.5C 135.116,68.1153 132.45,66.1153 129.5,64.5C 129.5,63.5 129.5,62.5 129.5,61.5C 131.993,61.8693 132.66,61.2027 131.5,59.5C 136.076,56.7611 139.909,53.0944 143,48.5C 143.718,49.4506 144.551,49.6172 145.5,49C 139.724,44.0161 133.058,40.8495 125.5,39.5C 124.828,40.9492 124.161,42.2825 123.5,43.5C 123.5,41.5 123.5,39.5 123.5,37.5C 124.338,37.1583 124.672,36.4916 124.5,35.5 Z"/></g>
<g><path style="opacity:1" fill="#a26819" d="M 78.5,42.5 C 75.8333,44.5 73.1667,46.5 70.5,48.5C 68.1838,49.8056 65.8505,51.1389 63.5,52.5C 67.364,47.6655 72.364,44.3322 78.5,42.5 Z"/></g>
<g><path style="opacity:1" fill="#330a54" d="M 96.5,37.5 C 95.4324,38.4345 94.099,38.7678 92.5,38.5C 92.2186,43.9979 93.8852,48.6645 97.5,52.5C 95.9102,52.3718 94.5769,51.7051 93.5,50.5C 91.9686,46.9789 90.9686,43.3122 90.5,39.5C 91.9899,37.7202 93.9899,37.0535 96.5,37.5 Z"/></g>
<g><path style="opacity:1" fill="#f7d853" d="M 131.5,59.5 C 130.251,57.8639 128.584,56.6972 126.5,56C 121.739,55.0063 117.739,53.8396 114.5,52.5C 120.515,52.4847 123.515,49.4847 123.5,43.5C 124.161,42.2825 124.828,40.9492 125.5,39.5C 133.058,40.8495 139.724,44.0161 145.5,49C 144.551,49.6172 143.718,49.4506 143,48.5C 139.909,53.0944 136.076,56.7611 131.5,59.5 Z"/></g>
<g><path style="opacity:1" fill="#efbb31" d="M 83.5,58.5 C 80.3498,60.0447 77.5165,62.0447 75,64.5C 74.79,62.9419 74.29,61.6085 73.5,60.5C 72.4412,58.4446 70.7746,57.1112 68.5,56.5C 67.0158,54.9263 65.3492,53.593 63.5,52.5C 65.8505,51.1389 68.1838,49.8056 70.5,48.5C 72.1703,48.2488 73.6703,47.5822 75,46.5C 78.5678,49.9647 81.4011,53.9647 83.5,58.5 Z"/></g>
<g><path style="opacity:1" fill="#ab782a" d="M 98.5,52.5 C 103.64,51.5119 108.974,51.1786 114.5,51.5C 114.5,51.8333 114.5,52.1667 114.5,52.5C 117.739,53.8396 121.739,55.0063 126.5,56C 128.584,56.6972 130.251,57.8639 131.5,59.5C 125.144,56.6596 118.478,54.9929 111.5,54.5C 108.5,53.1667 105.5,53.1667 102.5,54.5C 99.4752,54.8769 96.4752,55.0435 93.5,55C 96.1013,54.0797 98.7679,53.413 101.5,53C 100.552,52.5172 99.552,52.3505 98.5,52.5 Z"/></g>
<g><path style="opacity:1" fill="#efb92e" d="M 111.5,54.5 C 112.091,55.1515 112.757,55.8182 113.5,56.5C 112.051,57.1719 110.718,57.8386 109.5,58.5C 106.167,58.5 102.833,58.5 99.5,58.5C 99.5,57.5 99.5,56.5 99.5,55.5C 100.791,55.7373 101.791,55.404 102.5,54.5C 105.5,53.1667 108.5,53.1667 111.5,54.5 Z"/></g>
<g><path style="opacity:1" fill="#5f1a9f" d="M 63.5,52.5 C 65.3492,53.593 67.0158,54.9263 68.5,56.5C 68.5,56.8333 68.5,57.1667 68.5,57.5C 68.0618,57.4346 67.7284,57.6012 67.5,58C 70.1667,60.3333 70.1667,62.6667 67.5,65C 63.892,64.5208 60.2253,63.8541 56.5,63C 57.6956,62.3457 57.6956,61.8457 56.5,61.5C 54.4773,63.8528 52.4773,66.1862 50.5,68.5C 53.3552,61.9769 57.6885,56.6436 63.5,52.5 Z"/></g>
<g><path style="opacity:1" fill="#93561d" d="M 99.5,58.5 C 102.833,58.5 106.167,58.5 109.5,58.5C 115.708,58.7961 121.374,60.4628 126.5,63.5C 124.565,62.8505 122.565,62.5172 120.5,62.5C 114.233,59.64 107.567,58.8067 100.5,60C 98.2774,60.5662 96.2774,61.3995 94.5,62.5C 90.3159,62.5919 86.9826,64.2586 84.5,67.5C 83.8333,67.5 83.1667,67.5 82.5,67.5C 83.1667,66.1667 84.1667,65.1667 85.5,64.5C 90.0739,62.1955 94.7405,60.1955 99.5,58.5 Z"/></g>
<g><path style="opacity:1" fill="#f6eb7a" d="M 111.5,54.5 C 118.478,54.9929 125.144,56.6596 131.5,59.5C 132.66,61.2027 131.993,61.8693 129.5,61.5C 129.5,62.5 129.5,63.5 129.5,64.5C 128.609,63.8902 127.609,63.5569 126.5,63.5C 121.374,60.4628 115.708,58.7961 109.5,58.5C 110.718,57.8386 112.051,57.1719 113.5,56.5C 112.757,55.8182 112.091,55.1515 111.5,54.5 Z"/></g>
<g><path style="opacity:1" fill="#2f045e" d="M 120.5,62.5 C 111.83,61.2107 103.163,61.2107 94.5,62.5C 96.2774,61.3995 98.2774,60.5662 100.5,60C 107.567,58.8067 114.233,59.64 120.5,62.5 Z"/></g>
<g><path style="opacity:1" fill="#5511a3" d="M 120.5,62.5 C 128.057,65.6146 134.057,70.6146 138.5,77.5C 136.929,78.1969 135.429,78.5302 134,78.5C 131.661,76.4983 128.994,75.1649 126,74.5C 125.667,75.1667 125.333,75.8333 125,76.5C 123.933,75.8095 122.766,75.3095 121.5,75C 123.795,74.0164 123.461,73.1831 120.5,72.5C 116.596,71.5781 112.596,69.9114 108.5,67.5C 105.459,67.8787 102.959,69.212 101,71.5C 96.8643,70.1915 92.6976,70.1915 88.5,71.5C 86.6639,70.9724 84.9972,70.3058 83.5,69.5C 83.8333,68.8333 84.1667,68.1667 84.5,67.5C 86.9826,64.2586 90.3159,62.5919 94.5,62.5C 103.163,61.2107 111.83,61.2107 120.5,62.5 Z"/></g>
<g><path style="opacity:1" fill="#a16d23" d="M 82.5,61.5 C 78.846,63.3311 75.5127,65.6644 72.5,68.5C 73.2653,65.9039 73.5987,63.2372 73.5,60.5C 74.29,61.6085 74.79,62.9419 75,64.5C 77.5165,62.0447 80.3498,60.0447 83.5,58.5C 85.3049,57.0906 87.3049,56.5906 89.5,57C 86.7613,58.0259 84.428,59.5259 82.5,61.5 Z"/></g>
<g><path style="opacity:1" fill="#94581e" d="M 126.5,63.5 C 127.609,63.5569 128.609,63.8902 129.5,64.5C 132.45,66.1153 135.116,68.1153 137.5,70.5C 138.925,71.922 139.925,73.5887 140.5,75.5C 136.103,71.0963 131.436,67.0963 126.5,63.5 Z"/></g>
<g><path style="opacity:1" fill="#34065d" d="M 68.5,57.5 C 68.5,57.1667 68.5,56.8333 68.5,56.5C 70.7746,57.1112 72.4412,58.4446 73.5,60.5C 73.5987,63.2372 73.2653,65.9039 72.5,68.5C 67.7985,72.0615 64.6319,76.7282 63,82.5C 62.0053,83.0659 61.172,83.7326 60.5,84.5C 55.8095,84.2453 51.4761,82.912 47.5,80.5C 46.4489,79.7777 45.7822,78.7777 45.5,77.5C 46.4097,74.0078 48.0764,71.0078 50.5,68.5C 49.3253,71.817 48.4919,75.1504 48,78.5C 51.436,81.4926 55.2693,82.4926 59.5,81.5C 62.5721,75.0247 66.4054,69.0247 71,63.5C 71.9724,60.7058 71.1391,58.7058 68.5,57.5 Z"/></g>
<g><path style="opacity:1" fill="#8d531d" d="M 82.5,67.5 C 80.1667,70.5 77.5,73.1667 74.5,75.5C 76.1667,71.8333 78.8333,69.1667 82.5,67.5 Z"/></g>
<g><path style="opacity:1" fill="#9533d6" d="M 153.5,54.5 C 150.322,56.1201 147.322,58.2868 144.5,61C 146,63.1667 147.5,65.3333 149,67.5C 152.433,65.7471 156.1,64.4138 160,63.5C 162.395,65.081 162.895,67.081 161.5,69.5C 159.333,70.9479 157,72.1146 154.5,73C 153.663,74.0113 153.33,75.1779 153.5,76.5C 149.432,72.0427 146.099,67.0427 143.5,61.5C 145.382,57.2158 148.715,54.8825 153.5,54.5 Z"/></g>
<g><path style="opacity:1" fill="#f1d763" d="M 82.5,61.5 C 83.5,61.5 84.5,61.5 85.5,61.5C 85.5,62.5 85.5,63.5 85.5,64.5C 84.1667,65.1667 83.1667,66.1667 82.5,67.5C 78.8333,69.1667 76.1667,71.8333 74.5,75.5C 68.4042,82.5496 66.4042,90.5496 68.5,99.5C 68.5,100.5 68.5,101.5 68.5,102.5C 67.7784,102.918 67.2784,103.584 67,104.5C 66.964,102.059 66.1307,100.059 64.5,98.5C 64.1667,99.6667 63.8333,100.833 63.5,102C 64.0683,105.2 64.7349,108.367 65.5,111.5C 66.5,111.5 67.5,111.5 68.5,111.5C 68.3505,110.448 68.5172,109.448 69,108.5C 71.6645,111.376 71.8311,114.21 69.5,117C 68.552,117.483 67.552,117.649 66.5,117.5C 64.7052,112.278 63.2052,106.945 62,101.5C 61.2155,95.3461 61.8821,89.3461 64,83.5C 66.7529,78.3556 69.5862,73.3556 72.5,68.5C 75.5127,65.6644 78.846,63.3311 82.5,61.5 Z"/></g>
<g><path style="opacity:1" fill="#822ac4" d="M 68.5,57.5 C 71.1391,58.7058 71.9724,60.7058 71,63.5C 66.4054,69.0247 62.5721,75.0247 59.5,81.5C 55.2693,82.4926 51.436,81.4926 48,78.5C 48.4919,75.1504 49.3253,71.817 50.5,68.5C 52.4773,66.1862 54.4773,63.8528 56.5,61.5C 57.6956,61.8457 57.6956,62.3457 56.5,63C 60.2253,63.8541 63.892,64.5208 67.5,65C 70.1667,62.6667 70.1667,60.3333 67.5,58C 67.7284,57.6012 68.0618,57.4346 68.5,57.5 Z"/></g>
<g><path style="opacity:1" fill="#681ea9" d="M 153.5,54.5 C 156.86,57.1938 159.86,60.1938 162.5,63.5C 163.441,65.0495 164.107,66.7162 164.5,68.5C 165.061,71.462 166.061,74.2953 167.5,77C 165.22,79.8161 162.22,81.6494 158.5,82.5C 155.363,81.6985 153.696,79.6985 153.5,76.5C 153.33,75.1779 153.663,74.0113 154.5,73C 157,72.1146 159.333,70.9479 161.5,69.5C 162.895,67.081 162.395,65.081 160,63.5C 156.1,64.4138 152.433,65.7471 149,67.5C 147.5,65.3333 146,63.1667 144.5,61C 147.322,58.2868 150.322,56.1201 153.5,54.5 Z"/></g>
<g><path style="opacity:1" fill="#edcd55" d="M 169.5,69.5 C 175.982,85.677 177.316,102.344 173.5,119.5C 173.167,119.5 172.833,119.5 172.5,119.5C 172.167,118.5 171.5,117.833 170.5,117.5C 169.725,115.612 169.725,113.612 170.5,111.5C 171.268,110.737 171.768,109.737 172,108.5C 172.667,101.5 172.667,94.5 172,87.5C 171.594,84.2578 170.761,81.2578 169.5,78.5C 168.68,74.6978 167.014,71.3645 164.5,68.5C 164.107,66.7162 163.441,65.0495 162.5,63.5C 162.56,62.9569 162.893,62.6236 163.5,62.5C 165.552,64.878 167.552,67.2113 169.5,69.5 Z"/></g>
<g><path style="opacity:1" fill="#310858" d="M 153.5,54.5 C 148.715,54.8825 145.382,57.2158 143.5,61.5C 146.099,67.0427 149.432,72.0427 153.5,76.5C 153.696,79.6985 155.363,81.6985 158.5,82.5C 162.22,81.6494 165.22,79.8161 167.5,77C 166.061,74.2953 165.061,71.462 164.5,68.5C 167.014,71.3645 168.68,74.6978 169.5,78.5C 168.833,79.1667 168.167,79.8333 167.5,80.5C 163.524,82.912 159.191,84.2453 154.5,84.5C 153.828,83.7326 152.995,83.0659 152,82.5C 150.344,77.3079 147.511,72.9746 143.5,69.5C 139.656,62.6189 141.323,57.4522 148.5,54C 150.696,52.3922 152.362,52.5589 153.5,54.5 Z"/></g>
<g><path style="opacity:1" fill="#985e1c" d="M 74.5,75.5 C 73.2862,78.9302 71.7862,82.2635 70,85.5C 68.7748,90.0853 68.2748,94.752 68.5,99.5C 66.4042,90.5496 68.4042,82.5496 74.5,75.5 Z"/></g>
<g><path style="opacity:1" fill="#f7e162" d="M 47.5,80.5 C 51.4761,82.912 55.8095,84.2453 60.5,84.5C 61.6567,87.0259 61.6567,89.6926 60.5,92.5C 59.8826,92.6107 59.3826,92.944 59,93.5C 54.6667,92.8333 50.3333,92.1667 46,91.5C 46.0704,94.992 45.2371,97.992 43.5,100.5C 43.5878,95.4636 44.0878,90.4636 45,85.5C 45.0995,83.3474 45.9328,81.6808 47.5,80.5 Z"/></g>
<g><path style="opacity:1" fill="#f6de5d" d="M 167.5,80.5 C 168.649,80.7911 169.316,81.6244 169.5,83C 171.879,91.7982 172.045,100.632 170,109.5C 169.617,110.056 169.117,110.389 168.5,110.5C 169.38,103.877 169.713,97.2105 169.5,90.5C 164.819,90.8066 160.319,91.8066 156,93.5C 155.79,91.9419 155.29,90.6085 154.5,89.5C 153.167,87.8333 153.167,86.1667 154.5,84.5C 159.191,84.2453 163.524,82.912 167.5,80.5 Z"/></g>
<g><path style="opacity:1" fill="#774111" d="M 72.5,68.5 C 69.5862,73.3556 66.7529,78.3556 64,83.5C 61.8821,89.3461 61.2155,95.3461 62,101.5C 63.2052,106.945 64.7052,112.278 66.5,117.5C 64.347,115.206 62.6803,112.54 61.5,109.5C 60.8658,103.855 60.5324,98.1886 60.5,92.5C 61.6567,89.6926 61.6567,87.0259 60.5,84.5C 61.172,83.7326 62.0053,83.0659 63,82.5C 64.6319,76.7282 67.7985,72.0615 72.5,68.5 Z"/></g>
<g><path style="opacity:1" fill="#8e5614" d="M 169.5,78.5 C 170.761,81.2578 171.594,84.2578 172,87.5C 172.667,94.5 172.667,101.5 172,108.5C 171.768,109.737 171.268,110.737 170.5,111.5C 169.508,111.672 168.842,111.338 168.5,110.5C 169.117,110.389 169.617,110.056 170,109.5C 172.045,100.632 171.879,91.7982 169.5,83C 169.316,81.6244 168.649,80.7911 167.5,80.5C 168.167,79.8333 168.833,79.1667 169.5,78.5 Z"/></g>
<g><path style="opacity:1" fill="#743e14" d="M 143.5,69.5 C 147.511,72.9746 150.344,77.3079 152,82.5C 152.995,83.0659 153.828,83.7326 154.5,84.5C 153.167,86.1667 153.167,87.8333 154.5,89.5C 154.307,96.3766 154.307,103.043 154.5,109.5C 152.141,112.91 149.808,116.243 147.5,119.5C 149.605,114.283 151.438,108.95 153,103.5C 154.332,93.1578 152.332,83.4912 147,74.5C 145.198,73.2107 144.031,71.5441 143.5,69.5 Z"/></g>
<g><path style="opacity:1" fill="#a96610" d="M 48.5,64.5 C 48.9382,64.4346 49.2716,64.6012 49.5,65C 48.0202,67.7543 46.3536,70.421 44.5,73C 38.9241,88.1449 37.9241,103.645 41.5,119.5C 40.3995,120.605 39.7329,121.938 39.5,123.5C 35.2212,105.94 36.3878,88.6071 43,71.5C 44.853,69.0975 46.6863,66.7641 48.5,64.5 Z"/></g>
<g><path style="opacity:1" fill="#a5650b" d="M 169.5,69.5 C 170.79,70.0577 171.623,71.0577 172,72.5C 178.958,89.2406 180.125,106.241 175.5,123.5C 175.267,121.938 174.6,120.605 173.5,119.5C 177.316,102.344 175.982,85.677 169.5,69.5 Z"/></g>
<g><path style="opacity:1" fill="#905b19" d="M 45.5,77.5 C 45.7822,78.7777 46.4489,79.7777 47.5,80.5C 45.9328,81.6808 45.0995,83.3474 45,85.5C 44.0878,90.4636 43.5878,95.4636 43.5,100.5C 43.933,103.166 44.433,105.832 45,108.5C 45.4169,109.756 46.2502,110.423 47.5,110.5C 47.5,110.833 47.5,111.167 47.5,111.5C 46.391,111.557 45.391,111.89 44.5,112.5C 41.6767,100.664 42.0101,88.9972 45.5,77.5 Z"/></g>
<g><path style="opacity:1" fill="#bc7e1c" d="M 140.5,75.5 C 142.81,78.1019 144.643,81.1019 146,84.5C 146.71,83.0267 147.876,82.3601 149.5,82.5C 149.5,83.5 149.5,84.5 149.5,85.5C 148.325,85.281 147.325,85.6143 146.5,86.5C 147.841,90.384 148.675,94.384 149,98.5C 149.414,98.0426 149.914,97.7093 150.5,97.5C 151.655,100.446 151.821,103.446 151,106.5C 149.245,105.33 148.245,103.663 148,101.5C 147.495,104.865 146.328,107.865 144.5,110.5C 148.106,98.2424 146.773,86.5758 140.5,75.5 Z"/></g>
<g><path style="opacity:1" fill="#e7ae24" d="M 60.5,92.5 C 60.5324,98.1886 60.8658,103.855 61.5,109.5C 57.1597,106.708 53.1597,107.042 49.5,110.5C 48.8333,110.5 48.1667,110.5 47.5,110.5C 46.2502,110.423 45.4169,109.756 45,108.5C 44.433,105.832 43.933,103.166 43.5,100.5C 45.2371,97.992 46.0704,94.992 46,91.5C 50.3333,92.1667 54.6667,92.8333 59,93.5C 59.3826,92.944 59.8826,92.6107 60.5,92.5 Z"/></g>
<g><path style="opacity:1" fill="#ebb227" d="M 154.5,89.5 C 155.29,90.6085 155.79,91.9419 156,93.5C 160.319,91.8066 164.819,90.8066 169.5,90.5C 169.713,97.2105 169.38,103.877 168.5,110.5C 165.592,109.308 162.592,108.308 159.5,107.5C 157.7,107.902 156.033,108.569 154.5,109.5C 154.307,103.043 154.307,96.3766 154.5,89.5 Z"/></g>
<g><path style="opacity:1" fill="#eac853" d="M 143.5,69.5 C 144.031,71.5441 145.198,73.2107 147,74.5C 152.332,83.4912 154.332,93.1578 153,103.5C 151.438,108.95 149.605,114.283 147.5,119.5C 146.206,120.29 145.039,121.29 144,122.5C 143.71,120.956 143.044,119.623 142,118.5C 138.922,123.411 134.756,127.078 129.5,129.5C 128.316,131.467 128.649,133.134 130.5,134.5C 118.223,140.92 105.556,141.92 92.5,137.5C 92.5,136.167 92.5,134.833 92.5,133.5C 95.8067,134.051 99.1401,134.384 102.5,134.5C 121.681,135.274 135.681,127.274 144.5,110.5C 146.328,107.865 147.495,104.865 148,101.5C 148.245,103.663 149.245,105.33 151,106.5C 151.821,103.446 151.655,100.446 150.5,97.5C 149.914,97.7093 149.414,98.0426 149,98.5C 148.675,94.384 147.841,90.384 146.5,86.5C 147.325,85.6143 148.325,85.281 149.5,85.5C 149.5,84.5 149.5,83.5 149.5,82.5C 147.876,82.3601 146.71,83.0267 146,84.5C 144.643,81.1019 142.81,78.1019 140.5,75.5C 139.925,73.5887 138.925,71.922 137.5,70.5C 139.992,68.5294 139.658,66.6961 136.5,65C 136.833,64.8333 137.167,64.6667 137.5,64.5C 139.519,66.1897 141.519,67.8564 143.5,69.5 Z"/></g>
<g><path style="opacity:1" fill="#290649" d="M 120.5,62.5 C 122.565,62.5172 124.565,62.8505 126.5,63.5C 131.436,67.0963 136.103,71.0963 140.5,75.5C 146.773,86.5758 148.106,98.2424 144.5,110.5C 135.681,127.274 121.681,135.274 102.5,134.5C 96.897,133.371 91.5637,131.371 86.5,128.5C 77.0233,122.338 71.0233,113.671 68.5,102.5C 68.5,101.5 68.5,100.5 68.5,99.5C 68.2748,94.752 68.7748,90.0853 70,85.5C 71.7862,82.2635 73.2862,78.9302 74.5,75.5C 77.5,73.1667 80.1667,70.5 82.5,67.5C 83.1667,67.5 83.8333,67.5 84.5,67.5C 84.1667,68.1667 83.8333,68.8333 83.5,69.5C 78.9582,72.9232 75.6249,77.2565 73.5,82.5C 67.3265,99.1097 70.9931,113.276 84.5,125C 95.869,131.76 107.869,133.427 120.5,130C 124.56,128.311 128.227,126.144 131.5,123.5C 134.573,121.431 136.906,118.764 138.5,115.5C 144.604,106.479 145.937,96.8126 142.5,86.5C 142.498,82.8355 141.165,79.8355 138.5,77.5C 134.057,70.6146 128.057,65.6146 120.5,62.5 Z"/></g>
<g><path style="opacity:1" fill="#3f0685" d="M 83.5,93.5 C 83.4431,94.609 83.1098,95.609 82.5,96.5C 82.5,98.8333 82.5,101.167 82.5,103.5C 82.5,104.167 82.5,104.833 82.5,105.5C 83.3485,108.681 85.0152,111.348 87.5,113.5C 87.9924,116.486 89.4924,118.819 92,120.5C 106.125,128.224 118.625,126.39 129.5,115C 128.829,114.014 128.829,112.847 129.5,111.5C 131.545,110.077 132.545,108.077 132.5,105.5C 132.5,104.167 132.5,102.833 132.5,101.5C 132.5,100.167 132.5,98.8333 132.5,97.5C 132.5,96.8333 132.5,96.1667 132.5,95.5C 133.117,95.6107 133.617,95.944 134,96.5C 134.703,99.7125 134.536,102.879 133.5,106C 134.524,107.701 135.858,109.201 137.5,110.5C 138.452,112.045 138.785,113.712 138.5,115.5C 136.906,118.764 134.573,121.431 131.5,123.5C 131.565,123.062 131.399,122.728 131,122.5C 116.241,132.527 101.075,133.027 85.5,124C 84.2367,121.614 82.4033,119.781 80,118.5C 78.3602,116.421 77.1936,114.088 76.5,111.5C 77.7899,109.208 79.4565,107.208 81.5,105.5C 80.4149,102.227 80.2483,98.8936 81,95.5C 81.4169,94.244 82.2502,93.5774 83.5,93.5 Z"/></g>
<g><path style="opacity:1" fill="#290446" d="M 132.5,105.5 C 132.545,108.077 131.545,110.077 129.5,111.5C 124.2,115.493 118.866,115.493 113.5,111.5C 112.702,111.957 112.369,112.624 112.5,113.5C 110.569,111.206 109.736,108.539 110,105.5C 114.459,110.326 119.959,112.159 126.5,111C 129.023,109.64 131.023,107.807 132.5,105.5 Z"/></g>
<g><path style="opacity:1" fill="#330070" d="M 102.5,113.5 C 100.998,115.175 99.6647,117.008 98.5,119C 99.5,119.167 100.5,119.333 101.5,119.5C 106.816,118.775 112.15,118.608 117.5,119C 115.627,117.296 113.96,115.463 112.5,113.5C 112.369,112.624 112.702,111.957 113.5,111.5C 118.866,115.493 124.2,115.493 129.5,111.5C 128.829,112.847 128.829,114.014 129.5,115C 118.625,126.39 106.125,128.224 92,120.5C 89.4924,118.819 87.9924,116.486 87.5,113.5C 92.5544,115.285 97.221,114.619 101.5,111.5C 102.298,111.957 102.631,112.624 102.5,113.5 Z"/></g>
<g><path style="opacity:1" fill="#270343" d="M 82.5,105.5 C 86.5291,111.305 91.8625,112.971 98.5,110.5C 101.028,109.492 103.195,107.826 105,105.5C 105.022,108.451 104.189,111.117 102.5,113.5C 102.631,112.624 102.298,111.957 101.5,111.5C 97.221,114.619 92.5544,115.285 87.5,113.5C 85.0152,111.348 83.3485,108.681 82.5,105.5 Z"/></g>
<g><path style="opacity:1" fill="#c68512" d="M 98.5,110.5 C 91.8625,112.971 86.5291,111.305 82.5,105.5C 82.5,104.833 82.5,104.167 82.5,103.5C 83.6005,101.723 84.4338,99.7226 85,97.5C 86.3333,98.8333 87.6667,98.8333 89,97.5C 89.3173,99.3008 89.984,99.6341 91,98.5C 91.3242,100.569 92.1575,100.902 93.5,99.5C 96.8146,100.975 99.4813,103.142 101.5,106C 101.095,106.945 100.428,107.612 99.5,108C 96.438,108.741 93.438,108.575 90.5,107.5C 90.2635,108.247 89.9302,109.08 89.5,110C 92.4816,110.498 95.4816,110.665 98.5,110.5 Z"/></g>
<g><path style="opacity:1" fill="#dda92b" d="M 86.5,92.5 C 89.9572,96.2024 93.7906,97.5358 98,96.5C 98.3173,98.3008 98.984,98.6341 100,97.5C 105.896,101.414 112.396,102.914 119.5,102C 122.72,100.648 126.053,99.8143 129.5,99.5C 129.413,102.598 129.913,102.932 131,100.5C 131.383,101.056 131.883,101.389 132.5,101.5C 132.5,102.833 132.5,104.167 132.5,105.5C 131.023,107.807 129.023,109.64 126.5,111C 119.959,112.159 114.459,110.326 110,105.5C 109.736,108.539 110.569,111.206 112.5,113.5C 113.96,115.463 115.627,117.296 117.5,119C 112.15,118.608 106.816,118.775 101.5,119.5C 100.5,119.333 99.5,119.167 98.5,119C 99.6647,117.008 100.998,115.175 102.5,113.5C 104.189,111.117 105.022,108.451 105,105.5C 103.195,107.826 101.028,109.492 98.5,110.5C 95.4816,110.665 92.4816,110.498 89.5,110C 89.9302,109.08 90.2635,108.247 90.5,107.5C 93.438,108.575 96.438,108.741 99.5,108C 100.428,107.612 101.095,106.945 101.5,106C 99.4813,103.142 96.8146,100.975 93.5,99.5C 92.1575,100.902 91.3242,100.569 91,98.5C 89.984,99.6341 89.3173,99.3008 89,97.5C 87.6667,98.8333 86.3333,98.8333 85,97.5C 84.4338,99.7226 83.6005,101.723 82.5,103.5C 82.5,101.167 82.5,98.8333 82.5,96.5C 83.5,96.5 84.5,96.5 85.5,96.5C 85.4326,95.0413 85.7659,93.7079 86.5,92.5 Z"/></g>
<g><path style="opacity:1" fill="#eab227" d="M 128.5,94.5 C 129.232,95.8083 130.066,97.1416 131,98.5C 131.383,97.944 131.883,97.6107 132.5,97.5C 132.5,98.8333 132.5,100.167 132.5,101.5C 131.883,101.389 131.383,101.056 131,100.5C 129.913,102.932 129.413,102.598 129.5,99.5C 126.053,99.8143 122.72,100.648 119.5,102C 112.396,102.914 105.896,101.414 100,97.5C 98.984,98.6341 98.3173,98.3008 98,96.5C 93.7906,97.5358 89.9572,96.2024 86.5,92.5C 87.9575,90.9892 89.7908,89.9892 92,89.5C 92.3333,90.1667 92.6667,90.8333 93,91.5C 94.3876,90.4464 95.8876,90.2797 97.5,91C 101.281,92.7876 104.448,95.2876 107,98.5C 108.667,97.8333 110.333,97.1667 112,96.5C 112.333,97.1667 112.667,97.8333 113,98.5C 114.604,97.3507 116.27,97.3507 118,98.5C 119.61,96.5113 121.443,96.1779 123.5,97.5C 124.251,96.624 124.751,95.624 125,94.5C 126.292,95.7911 127.458,95.7911 128.5,94.5 Z"/></g>
<g><path style="opacity:1" fill="#4c0e96" d="M 142.5,86.5 C 145.937,96.8126 144.604,106.479 138.5,115.5C 138.785,113.712 138.452,112.045 137.5,110.5C 135.858,109.201 134.524,107.701 133.5,106C 134.536,102.879 134.703,99.7125 134,96.5C 133.617,95.944 133.117,95.6107 132.5,95.5C 131.395,92.1552 129.395,89.3218 126.5,87C 121.906,84.8816 117.906,82.0483 114.5,78.5C 114.56,77.9569 114.893,77.6236 115.5,77.5C 121.635,81.7983 128.135,85.4649 135,88.5C 137.277,88.1352 139.777,87.4686 142.5,86.5 Z"/></g>
<g><path style="opacity:1" fill="#f8d044" d="M 91.5,85.5 C 93.9267,85.523 96.26,86.023 98.5,87C 100.888,88.8605 103.554,90.1939 106.5,91C 113.183,91.3051 119.85,91.3051 126.5,91C 127.823,91.8159 128.489,92.9826 128.5,94.5C 127.458,95.7911 126.292,95.7911 125,94.5C 124.751,95.624 124.251,96.624 123.5,97.5C 121.443,96.1779 119.61,96.5113 118,98.5C 116.27,97.3507 114.604,97.3507 113,98.5C 112.667,97.8333 112.333,97.1667 112,96.5C 110.333,97.1667 108.667,97.8333 107,98.5C 104.448,95.2876 101.281,92.7876 97.5,91C 95.8876,90.2797 94.3876,90.4464 93,91.5C 92.6667,90.8333 92.3333,90.1667 92,89.5C 89.7908,89.9892 87.9575,90.9892 86.5,92.5C 85.7659,93.7079 85.4326,95.0413 85.5,96.5C 84.5,96.5 83.5,96.5 82.5,96.5C 83.1098,95.609 83.4431,94.609 83.5,93.5C 85.1667,89.8333 87.8333,87.1667 91.5,85.5 Z"/></g>
<g><path style="opacity:1" fill="#4f0f97" d="M 104.5,74.5 C 104.586,75.4959 104.252,76.3292 103.5,77C 99.6088,80.1011 95.6088,82.9344 91.5,85.5C 87.8333,87.1667 85.1667,89.8333 83.5,93.5C 82.2502,93.5774 81.4169,94.244 81,95.5C 80.2483,98.8936 80.4149,102.227 81.5,105.5C 79.4565,107.208 77.7899,109.208 76.5,111.5C 77.1936,114.088 78.3602,116.421 80,118.5C 82.4033,119.781 84.2367,121.614 85.5,124C 101.075,133.027 116.241,132.527 131,122.5C 131.399,122.728 131.565,123.062 131.5,123.5C 128.227,126.144 124.56,128.311 120.5,130C 107.869,133.427 95.869,131.76 84.5,125C 70.9931,113.276 67.3265,99.1097 73.5,82.5C 75.3402,82.2734 77.3402,82.7734 79.5,84C 79.1667,84.3333 78.8333,84.6667 78.5,85C 88.1439,84.231 96.4772,80.3977 103.5,73.5C 104.107,73.6236 104.44,73.9569 104.5,74.5 Z"/></g>
<g><path style="opacity:1" fill="#f7e56a" d="M 114.5,78.5 C 117.906,82.0483 121.906,84.8816 126.5,87C 129.395,89.3218 131.395,92.1552 132.5,95.5C 132.5,96.1667 132.5,96.8333 132.5,97.5C 131.883,97.6107 131.383,97.944 131,98.5C 130.066,97.1416 129.232,95.8083 128.5,94.5C 128.489,92.9826 127.823,91.8159 126.5,91C 119.85,91.3051 113.183,91.3051 106.5,91C 103.554,90.1939 100.888,88.8605 98.5,87C 96.26,86.023 93.9267,85.523 91.5,85.5C 95.6088,82.9344 99.6088,80.1011 103.5,77C 104.252,76.3292 104.586,75.4959 104.5,74.5C 105.482,73.8592 106.482,73.1925 107.5,72.5C 109.418,75.026 111.751,77.026 114.5,78.5 Z"/></g>
<g><path style="opacity:1" fill="#5512a1" d="M 138.5,77.5 C 141.165,79.8355 142.498,82.8355 142.5,86.5C 139.777,87.4686 137.277,88.1352 135,88.5C 128.135,85.4649 121.635,81.7983 115.5,77.5C 114.893,77.6236 114.56,77.9569 114.5,78.5C 111.751,77.026 109.418,75.026 107.5,72.5C 106.482,73.1925 105.482,73.8592 104.5,74.5C 104.44,73.9569 104.107,73.6236 103.5,73.5C 96.4772,80.3977 88.1439,84.231 78.5,85C 78.8333,84.6667 79.1667,84.3333 79.5,84C 77.3402,82.7734 75.3402,82.2734 73.5,82.5C 75.6249,77.2565 78.9582,72.9232 83.5,69.5C 84.9972,70.3058 86.6639,70.9724 88.5,71.5C 92.6976,70.1915 96.8643,70.1915 101,71.5C 102.959,69.212 105.459,67.8787 108.5,67.5C 112.596,69.9114 116.596,71.5781 120.5,72.5C 123.461,73.1831 123.795,74.0164 121.5,75C 122.766,75.3095 123.933,75.8095 125,76.5C 125.333,75.8333 125.667,75.1667 126,74.5C 128.994,75.1649 131.661,76.4983 134,78.5C 135.429,78.5302 136.929,78.1969 138.5,77.5 Z"/></g>
<g><path style="opacity:1" fill="#cf9724" d="M 68.5,102.5 C 71.0233,113.671 77.0233,122.338 86.5,128.5C 84.1688,128.859 84.3355,129.526 87,130.5C 87.4828,131.448 87.6495,132.448 87.5,133.5C 86.209,133.263 85.209,133.596 84.5,134.5C 83.3478,133.375 82.3478,133.375 81.5,134.5C 77.8127,137.506 75.8127,141.506 75.5,146.5C 72.1908,145.758 69.3575,144.091 67,141.5C 66.7003,139.934 67.2003,138.601 68.5,137.5C 69.3149,136.163 70.4815,135.163 72,134.5C 72.8749,133.127 73.3749,131.627 73.5,130C 71.2962,125.759 68.9628,121.592 66.5,117.5C 67.552,117.649 68.552,117.483 69.5,117C 71.8311,114.21 71.6645,111.376 69,108.5C 68.5172,109.448 68.3505,110.448 68.5,111.5C 67.5,111.5 66.5,111.5 65.5,111.5C 64.7349,108.367 64.0683,105.2 63.5,102C 63.8333,100.833 64.1667,99.6667 64.5,98.5C 66.1307,100.059 66.964,102.059 67,104.5C 67.2784,103.584 67.7784,102.918 68.5,102.5 Z"/></g>
<g><path style="opacity:1" fill="#c68a19" d="M 147.5,119.5 C 146.567,122.37 144.9,124.704 142.5,126.5C 138.769,129.563 134.769,132.23 130.5,134.5C 128.649,133.134 128.316,131.467 129.5,129.5C 134.756,127.078 138.922,123.411 142,118.5C 143.044,119.623 143.71,120.956 144,122.5C 145.039,121.29 146.206,120.29 147.5,119.5 Z"/></g>
<g><path style="opacity:1" fill="#2d035b" d="M 168.5,110.5 C 168.842,111.338 169.508,111.672 170.5,111.5C 169.725,113.612 169.725,115.612 170.5,117.5C 167.083,127.324 161.417,135.658 153.5,142.5C 153.573,140.973 152.906,139.973 151.5,139.5C 149.95,138.559 148.284,137.893 146.5,137.5C 143.55,135.272 141.884,132.272 141.5,128.5C 142.338,128.158 142.672,127.492 142.5,126.5C 144.9,124.704 146.567,122.37 147.5,119.5C 149.808,116.243 152.141,112.91 154.5,109.5C 156.033,108.569 157.7,107.902 159.5,107.5C 162.592,108.308 165.592,109.308 168.5,110.5 Z"/></g>
<g><path style="opacity:1" fill="#842cc6" d="M 159.5,131.5 C 159.276,129.954 158.943,128.287 158.5,126.5C 156.201,125.365 154.034,124.032 152,122.5C 149.071,125.69 147.238,129.357 146.5,133.5C 144.727,132.686 144.227,131.352 145,129.5C 149.212,123.963 152.546,117.963 155,111.5C 159.181,108.99 163.348,109.157 167.5,112C 167.303,119.406 164.636,125.906 159.5,131.5 Z"/></g>
<g><path style="opacity:1" fill="#5d179e" d="M 44.5,117.5 C 48.6482,127.122 54.3149,135.788 61.5,143.5C 61.5,144.167 61.5,144.833 61.5,145.5C 60.8333,145.5 60.5,145.833 60.5,146.5C 54.4071,141.907 49.5737,136.24 46,129.5C 44.8304,126.148 43.6637,122.814 42.5,119.5C 42.8333,118.5 43.5,117.833 44.5,117.5 Z"/></g>
<g><path style="opacity:1" fill="#2d045a" d="M 61.5,109.5 C 62.6803,112.54 64.347,115.206 66.5,117.5C 68.9628,121.592 71.2962,125.759 73.5,130C 73.3749,131.627 72.8749,133.127 72,134.5C 70.4815,135.163 69.3149,136.163 68.5,137.5C 66.7162,137.893 65.0495,138.559 63.5,139.5C 62.8333,140.833 62.1667,142.167 61.5,143.5C 54.3149,135.788 48.6482,127.122 44.5,117.5C 45.8333,115.833 45.8333,114.167 44.5,112.5C 45.391,111.89 46.391,111.557 47.5,111.5C 48.6598,121.391 52.9931,129.891 60.5,137C 62.0657,137.765 63.3991,137.598 64.5,136.5C 67.7109,136.235 69.7109,134.568 70.5,131.5C 66.8041,124.961 63.3041,118.295 60,111.5C 56.7182,109.182 53.2182,108.849 49.5,110.5C 53.1597,107.042 57.1597,106.708 61.5,109.5 Z"/></g>
<g><path style="opacity:1" fill="#832bc2" d="M 64.5,136.5 C 63.3991,137.598 62.0657,137.765 60.5,137C 52.9931,129.891 48.6598,121.391 47.5,111.5C 47.5,111.167 47.5,110.833 47.5,110.5C 48.1667,110.5 48.8333,110.5 49.5,110.5C 53.2182,108.849 56.7182,109.182 60,111.5C 63.3041,118.295 66.8041,124.961 70.5,131.5C 69.7109,134.568 67.7109,136.235 64.5,136.5 Z"/></g>
<g><path style="opacity:1" fill="#500d98" d="M 64.5,136.5 C 59.7764,134.947 56.4431,131.78 54.5,127C 57.3967,125.635 60.2301,124.135 63,122.5C 65.4374,125.11 67.2707,128.11 68.5,131.5C 67.6772,133.577 66.3439,135.244 64.5,136.5 Z"/></g>
<g><path style="opacity:1" fill="#530f9a" d="M 159.5,131.5 C 157.186,138.548 153.186,139.882 147.5,135.5C 147.137,134.817 146.804,134.15 146.5,133.5C 147.238,129.357 149.071,125.69 152,122.5C 154.034,124.032 156.201,125.365 158.5,126.5C 158.943,128.287 159.276,129.954 159.5,131.5 Z"/></g>
<g><path style="opacity:1" fill="#2e035f" d="M 41.5,119.5 C 41.8333,119.5 42.1667,119.5 42.5,119.5C 43.6637,122.814 44.8304,126.148 46,129.5C 49.5737,136.24 54.4071,141.907 60.5,146.5C 60.81,149.713 60.4767,152.713 59.5,155.5C 49.2899,147.086 42.6232,136.42 39.5,123.5C 39.7329,121.938 40.3995,120.605 41.5,119.5 Z"/></g>
<g><path style="opacity:1" fill="#f0e882" d="M 86.5,128.5 C 91.5637,131.371 96.897,133.371 102.5,134.5C 99.1401,134.384 95.8067,134.051 92.5,133.5C 92.5,134.833 92.5,136.167 92.5,137.5C 89.6202,137.06 86.9535,136.06 84.5,134.5C 85.209,133.596 86.209,133.263 87.5,133.5C 87.6495,132.448 87.4828,131.448 87,130.5C 84.3355,129.526 84.1688,128.859 86.5,128.5 Z"/></g>
<g><path style="opacity:1" fill="#631ba3" d="M 170.5,117.5 C 171.5,117.833 172.167,118.5 172.5,119.5C 169.25,130.333 163.25,139.333 154.5,146.5C 154.5,145.833 154.167,145.5 153.5,145.5C 153.5,144.5 153.5,143.5 153.5,142.5C 161.417,135.658 167.083,127.324 170.5,117.5 Z"/></g>
<g><path style="opacity:1" fill="#d49212" d="M 141.5,128.5 C 141.884,132.272 143.55,135.272 146.5,137.5C 146.937,139.074 147.937,140.241 149.5,141C 146.971,143.029 144.304,144.862 141.5,146.5C 140.522,146.023 139.689,145.357 139,144.5C 138.091,140.796 136.591,137.463 134.5,134.5C 136.808,132.529 139.142,130.529 141.5,128.5 Z"/></g>
<g><path style="opacity:1" fill="#f5da5c" d="M 81.5,134.5 C 86.1159,137.134 90.7826,139.467 95.5,141.5C 95.1667,141.5 94.8333,141.5 94.5,141.5C 92.5891,141.574 91.4224,142.574 91,144.5C 89.7633,148.06 89.2633,151.727 89.5,155.5C 81.4322,153.614 74.0989,150.114 67.5,145C 65.2542,143.743 63.9209,141.91 63.5,139.5C 65.0495,138.559 66.7162,137.893 68.5,137.5C 67.2003,138.601 66.7003,139.934 67,141.5C 69.3575,144.091 72.1908,145.758 75.5,146.5C 75.8127,141.506 77.8127,137.506 81.5,134.5 Z"/></g>
<g><path style="opacity:1" fill="#8b5216" d="M 142.5,126.5 C 142.672,127.492 142.338,128.158 141.5,128.5C 139.142,130.529 136.808,132.529 134.5,134.5C 128.972,137.292 123.306,139.625 117.5,141.5C 110.167,141.5 102.833,141.5 95.5,141.5C 90.7826,139.467 86.1159,137.134 81.5,134.5C 82.3478,133.375 83.3478,133.375 84.5,134.5C 86.9535,136.06 89.6202,137.06 92.5,137.5C 105.556,141.92 118.223,140.92 130.5,134.5C 134.769,132.23 138.769,129.563 142.5,126.5 Z"/></g>
<g><path style="opacity:1" fill="#ba7202" d="M 115.5,134.5 C 116.833,134.5 118.167,134.5 119.5,134.5C 119.5,135.5 119.5,136.5 119.5,137.5C 112.87,138.546 106.203,138.713 99.5,138C 98.1667,137.333 98.1667,136.667 99.5,136C 105.016,135.827 110.349,135.327 115.5,134.5 Z"/></g>
<g><path style="opacity:1" fill="#2d015f" d="M 172.5,119.5 C 172.833,119.5 173.167,119.5 173.5,119.5C 174.6,120.605 175.267,121.938 175.5,123.5C 173.393,133.38 168.893,142.047 162,149.5C 159.963,151.706 157.797,153.706 155.5,155.5C 154.523,152.713 154.19,149.713 154.5,146.5C 163.25,139.333 169.25,130.333 172.5,119.5 Z"/></g>
<g><path style="opacity:1" fill="#f6dc60" d="M 134.5,134.5 C 136.591,137.463 138.091,140.796 139,144.5C 139.689,145.357 140.522,146.023 141.5,146.5C 144.304,144.862 146.971,143.029 149.5,141C 147.937,140.241 146.937,139.074 146.5,137.5C 148.284,137.893 149.95,138.559 151.5,139.5C 151.719,140.675 151.386,141.675 150.5,142.5C 143.094,148.702 134.761,153.036 125.5,155.5C 126.429,150.235 125.096,145.735 121.5,142C 120.552,141.517 119.552,141.351 118.5,141.5C 118.167,141.5 117.833,141.5 117.5,141.5C 123.306,139.625 128.972,137.292 134.5,134.5 Z"/></g>
<g><path style="opacity:1" fill="#894e09" d="M 63.5,139.5 C 63.9209,141.91 65.2542,143.743 67.5,145C 74.0989,150.114 81.4322,153.614 89.5,155.5C 88.8902,156.391 88.5569,157.391 88.5,158.5C 79.0476,155.525 70.5476,150.858 63,144.5C 62.6174,145.056 62.1174,145.389 61.5,145.5C 61.5,144.833 61.5,144.167 61.5,143.5C 62.1667,142.167 62.8333,140.833 63.5,139.5 Z"/></g>
<g><path style="opacity:1" fill="#aa6506" d="M 61.5,145.5 C 62.2026,147.716 63.5359,149.549 65.5,151C 72.0146,156.008 79.1813,159.841 87,162.5C 87.2321,161.263 87.7321,160.263 88.5,159.5C 88.5,160.5 88.5,161.5 88.5,162.5C 88.5,165.167 88.5,167.833 88.5,170.5C 77.4502,167.811 67.7836,162.811 59.5,155.5C 60.4767,152.713 60.81,149.713 60.5,146.5C 60.5,145.833 60.8333,145.5 61.5,145.5 Z"/></g>
<g><path style="opacity:1" fill="#2e0755" d="M 94.5,141.5 C 91.9117,145.918 91.2451,150.585 92.5,155.5C 102.442,157.965 112.442,158.132 122.5,156C 123.116,154.6 123.449,153.1 123.5,151.5C 123.639,149.117 122.972,147.117 121.5,145.5C 120.789,143.97 119.789,142.637 118.5,141.5C 119.552,141.351 120.552,141.517 121.5,142C 125.096,145.735 126.429,150.235 125.5,155.5C 126.234,156.708 126.567,158.041 126.5,159.5C 125.423,158.982 124.256,158.648 123,158.5C 112.053,161.388 101.219,161.054 90.5,157.5C 89.8182,158.243 89.1515,158.909 88.5,159.5C 88.5,159.167 88.5,158.833 88.5,158.5C 88.5569,157.391 88.8902,156.391 89.5,155.5C 89.2633,151.727 89.7633,148.06 91,144.5C 91.4224,142.574 92.5891,141.574 94.5,141.5 Z"/></g>
<g><path style="opacity:1" fill="#8931c5" d="M 94.5,141.5 C 94.8333,141.5 95.1667,141.5 95.5,141.5C 102.833,141.5 110.167,141.5 117.5,141.5C 117.833,141.5 118.167,141.5 118.5,141.5C 119.789,142.637 120.789,143.97 121.5,145.5C 122.972,147.117 123.639,149.117 123.5,151.5C 123.449,153.1 123.116,154.6 122.5,156C 112.442,158.132 102.442,157.965 92.5,155.5C 91.2451,150.585 91.9117,145.918 94.5,141.5 Z"/></g>
<g><path style="opacity:1" fill="#500e9a" d="M 121.5,145.5 C 121.508,148.545 121.841,151.545 122.5,154.5C 112.833,157.167 103.167,157.167 93.5,154.5C 93.3367,152.143 93.5034,149.81 94,147.5C 94.3176,145.939 95.1509,144.772 96.5,144C 103.833,143.333 111.167,143.333 118.5,144C 119.527,144.513 120.527,145.013 121.5,145.5 Z"/></g>
<g><path style="opacity:1" fill="#eec844" d="M 88.5,158.5 C 88.5,158.833 88.5,159.167 88.5,159.5C 87.7321,160.263 87.2321,161.263 87,162.5C 79.1813,159.841 72.0146,156.008 65.5,151C 63.5359,149.549 62.2026,147.716 61.5,145.5C 62.1174,145.389 62.6174,145.056 63,144.5C 70.5476,150.858 79.0476,155.525 88.5,158.5 Z"/></g>
<g><path style="opacity:1" fill="#7929b3" d="M 126.5,159.5 C 126.5,160.5 126.5,161.5 126.5,162.5C 113.855,165.047 101.189,165.047 88.5,162.5C 88.5,161.5 88.5,160.5 88.5,159.5C 89.1515,158.909 89.8182,158.243 90.5,157.5C 101.219,161.054 112.053,161.388 123,158.5C 124.256,158.648 125.423,158.982 126.5,159.5 Z"/></g>
<g><path style="opacity:1" fill="#aa670c" d="M 151.5,139.5 C 152.906,139.973 153.573,140.973 153.5,142.5C 153.5,143.5 153.5,144.5 153.5,145.5C 154.167,145.5 154.5,145.833 154.5,146.5C 154.19,149.713 154.523,152.713 155.5,155.5C 147.181,162.828 137.515,167.828 126.5,170.5C 126.5,167.833 126.5,165.167 126.5,162.5C 126.5,161.5 126.5,160.5 126.5,159.5C 126.567,158.041 126.234,156.708 125.5,155.5C 134.761,153.036 143.094,148.702 150.5,142.5C 151.386,141.675 151.719,140.675 151.5,139.5 Z"/></g>
<g><path style="opacity:1" fill="#f0d050" d="M 153.5,145.5 C 153.719,146.675 153.386,147.675 152.5,148.5C 145.794,154.772 137.961,159.105 129,161.5C 128.5,161.167 128,160.833 127.5,160.5C 129.5,159.5 131.5,158.5 133.5,157.5C 133.291,156.914 132.957,156.414 132.5,156C 139.501,152.996 146.001,149.162 152,144.5C 152.383,145.056 152.883,145.389 153.5,145.5 Z"/></g>
<g><path style="opacity:1" fill="#3d0875" d="M 88.5,162.5 C 101.189,165.047 113.855,165.047 126.5,162.5C 126.5,165.167 126.5,167.833 126.5,170.5C 121.918,172.056 117.084,173.056 112,173.5C 108.288,172.231 104.622,172.231 101,173.5C 96.6284,172.97 92.4618,171.97 88.5,170.5C 88.5,167.833 88.5,165.167 88.5,162.5 Z"/></g>
</svg>
