<?xml version="1.0" encoding="UTF-8"?>
<!DOCTYPE svg PUBLIC "-//W3C//DTD SVG 1.1//EN" "http://www.w3.org/Graphics/SVG/1.1/DTD/svg11.dtd">
<svg xmlns="http://www.w3.org/2000/svg" version="1.1" width="568px" height="569px" style="shape-rendering:geometricPrecision; text-rendering:geometricPrecision; image-rendering:optimizeQuality; fill-rule:evenodd; clip-rule:evenodd" xmlns:xlink="http://www.w3.org/1999/xlink">
<g><path style="opacity:1" fill="#8d819e" d="M 276.5,2.5 C 271.025,3.48886 265.358,3.8222 259.5,3.5C 264.9,2.8131 270.4,2.14644 276,1.5C 276.399,1.72845 276.565,2.06178 276.5,2.5 Z"/></g>
<g><path style="opacity:1" fill="#7b6c91" d="M 257.5,3.5 C 253.1,5.10419 248.434,5.77086 243.5,5.5C 247.919,4.02849 252.586,3.36182 257.5,3.5 Z"/></g>
<g><path style="opacity:1" fill="#9f97af" d="M 349.5,9.5 C 352.067,9.72148 354.401,10.3882 356.5,11.5C 353.772,11.8294 351.438,11.1628 349.5,9.5 Z"/></g>
<g><path style="opacity:1" fill="#76688d" d="M 209.5,12.5 C 204.5,14.943 199.166,16.6096 193.5,17.5C 198.5,15.057 203.834,13.3904 209.5,12.5 Z"/></g>
<g><path style="opacity:1" fill="#b79352" d="M 247.5,21.5 C 270.661,20.5025 293.994,20.1691 317.5,20.5C 318.833,20.5 320.167,20.5 321.5,20.5C 321.5,37.8333 321.5,55.1667 321.5,72.5C 321.167,72.5 320.833,72.5 320.5,72.5C 320.5,55.5 320.5,38.5 320.5,21.5C 296.167,21.5 271.833,21.5 247.5,21.5 Z"/></g>
<g><path style="opacity:1" fill="#e7c14c" d="M 247.5,21.5 C 271.833,21.5 296.167,21.5 320.5,21.5C 320.5,38.5 320.5,55.5 320.5,72.5C 296.167,72.5 271.833,72.5 247.5,72.5C 247.5,55.5 247.5,38.5 247.5,21.5 Z"/></g>
<g><path style="opacity:1" fill="#958eaa" d="M 88.5,81.5 C 86.1667,84.5 83.5,87.1667 80.5,89.5C 82.1667,85.8333 84.8333,83.1667 88.5,81.5 Z"/></g>
<g><path style="opacity:1" fill="#e4bd4f" d="M 288.5,90.5 C 371.953,96.4921 430.787,137.492 465,213.5C 490.139,286.455 478.473,352.788 430,412.5C 382.14,463.66 323.306,484.827 253.5,476C 224.869,471.009 198.535,460.509 174.5,444.5C 103.515,389.727 78.0148,318.394 98,230.5C 124.401,152.438 178.234,106.272 259.5,92C 269.126,90.7559 278.792,90.2559 288.5,90.5 Z"/></g>
<g><path style="opacity:1" fill="#928aa6" d="M 74.5,95.5 C 73.9202,97.7488 72.5869,99.4154 70.5,100.5C 71.0798,98.2512 72.4131,96.5846 74.5,95.5 Z"/></g>
<g><path style="opacity:1" fill="#a499b2" d="M 496.5,97.5 C 497.906,97.9731 498.573,98.9731 498.5,100.5C 497.094,100.027 496.427,99.0269 496.5,97.5 Z"/></g>
<g><path style="opacity:1" fill="#b2a9bb" d="M 59.5,113.5 C 59.2624,115.404 58.2624,116.738 56.5,117.5C 56.7376,115.596 57.7376,114.262 59.5,113.5 Z"/></g>
<g><path style="opacity:1" fill="#35215e" d="M 349.5,9.5 C 351.438,11.1628 353.772,11.8294 356.5,11.5C 372.959,15.2413 388.626,20.908 403.5,28.5C 401.179,28.7711 399.179,28.1045 397.5,26.5C 395.368,31.0209 394.035,30.3542 393.5,24.5C 387.081,23.9574 383.248,26.6241 382,32.5C 380.103,34.6653 377.936,35.3319 375.5,34.5C 376.833,33.5 378.167,32.5 379.5,31.5C 379.167,30.5 378.5,29.8333 377.5,29.5C 376.352,31.1487 375.019,32.6487 373.5,34C 372.668,34.6877 372.002,34.521 371.5,33.5C 372.751,32.3689 373.751,31.0356 374.5,29.5C 374.333,28.8333 374.167,28.1667 374,27.5C 371.31,29.1977 368.977,31.1977 367,33.5C 366.5,33.3333 366,33.1667 365.5,33C 366.765,31.6626 367.265,30.1626 367,28.5C 365.817,29.731 364.651,29.731 363.5,28.5C 365.98,26.2942 368.314,23.9608 370.5,21.5C 369.738,21.0894 368.738,20.9227 367.5,21C 368.174,19.2494 368.507,17.5827 368.5,16C 367.551,15.3828 366.718,15.5494 366,16.5C 365.692,15.6919 365.192,15.0253 364.5,14.5C 362.833,15.3333 361.167,16.1667 359.5,17C 360.849,18.6354 360.682,20.1354 359,21.5C 359.42,17.6624 358.253,17.4957 355.5,21C 354.207,21.49 352.873,21.6567 351.5,21.5C 351.662,23.5273 351.495,25.5273 351,27.5C 349,30.1667 347,32.8333 345,35.5C 345.277,32.5966 346.444,29.93 348.5,27.5C 348.167,27.1667 347.833,26.8333 347.5,26.5C 346.155,27.3467 345.155,28.5134 344.5,30C 343.833,30.6667 343.167,30.6667 342.5,30C 345.433,25.9493 344.933,25.116 341,27.5C 340.342,25.892 340.842,24.7253 342.5,24C 342,23.5 341.5,23 341,22.5C 339.287,23.8782 337.953,25.5448 337,27.5C 338,24.5 339,21.5 340,18.5C 336.507,22.3605 333.007,25.5272 329.5,28C 328.167,28.6667 326.833,28.6667 325.5,28C 327.592,27.0475 327.925,25.7141 326.5,24C 328.874,21.961 330.874,19.6277 332.5,17C 333.167,16.3333 333.833,16.3333 334.5,17C 333.269,18.1827 333.269,19.3493 334.5,20.5C 337.255,18.2388 336.922,16.4055 333.5,15C 335.898,14.9747 338.231,14.1413 340.5,12.5C 338.704,11.8586 337.204,10.8586 336,9.5C 333.087,13.2695 331.254,13.2695 330.5,9.5C 327.624,11.9971 324.791,11.6638 322,8.5C 320.278,8.61066 320.112,9.11066 321.5,10C 320.167,10.6667 318.833,11.3333 317.5,12C 319.089,13.7454 321.089,14.912 323.5,15.5C 322.738,15.9106 321.738,16.0773 320.5,16C 321.774,17.2208 323.274,18.0541 325,18.5C 326.393,17.3849 327.893,16.8849 329.5,17C 326.812,20.2648 323.812,20.7648 320.5,18.5C 319.261,18.9424 318.261,19.6091 317.5,20.5C 293.994,20.1691 270.661,20.5025 247.5,21.5C 247.5,38.5 247.5,55.5 247.5,72.5C 271.833,72.5 296.167,72.5 320.5,72.5C 320.833,72.5 321.167,72.5 321.5,72.5C 304.005,73.3316 286.338,73.8316 268.5,74C 272.656,73.9481 276.49,74.7815 280,76.5C 283.74,75.2061 287.74,74.5395 292,74.5C 295.833,74.6667 299.667,74.8333 303.5,75C 303.833,75.3333 304.167,75.6667 304.5,76C 303.062,76.2189 301.729,76.7189 300.5,77.5C 300.667,77.8333 300.833,78.1667 301,78.5C 303.064,77.4086 305.231,77.2419 307.5,78C 304.993,80.445 302.327,82.7784 299.5,85C 299.833,85.3333 300.167,85.6667 300.5,86C 299.004,86.5074 297.837,86.0074 297,84.5C 296.692,85.3081 296.192,85.9747 295.5,86.5C 293.902,85.5153 292.235,85.3486 290.5,86C 290.957,86.414 291.291,86.914 291.5,87.5C 290.23,88.2876 289.23,89.2876 288.5,90.5C 278.792,90.2559 269.126,90.7559 259.5,92C 178.234,106.272 124.401,152.438 98,230.5C 78.0148,318.394 103.515,389.727 174.5,444.5C 172.171,445.749 170.338,445.082 169,442.5C 168.667,442.833 168.333,443.167 168,443.5C 164.973,441.561 162.473,439.061 160.5,436C 158.919,435.293 157.419,434.46 156,433.5C 155.667,434.167 155.333,434.833 155,435.5C 152.213,433.953 149.88,431.953 148,429.5C 145.697,429.742 143.697,431.075 142,433.5C 140.009,431.543 138.009,429.543 136,427.5C 135.5,428.5 135,429.5 134.5,430.5C 139.419,435.041 144.085,439.874 148.5,445C 147.944,445.383 147.611,445.883 147.5,446.5C 134.469,433.968 121.636,421.302 109,408.5C 96.7079,419.791 84.7079,431.458 73,443.5C 72.3333,444.5 72.3333,445.5 73,446.5C 74.7073,448.037 76.2073,449.704 77.5,451.5C 76.4017,452.601 76.235,453.934 77,455.5C 78.1667,456.667 79.3333,457.833 80.5,459C 78.2542,460.257 76.9209,462.09 76.5,464.5C 78.9115,464.863 80.4115,463.863 81,461.5C 81.3095,462.766 81.8095,463.933 82.5,465C 84.7801,465.233 86.7801,466.066 88.5,467.5C 90.0084,470.839 92.3417,473.339 95.5,475C 94.5,477.333 93.5,479.667 92.5,482C 93.7046,483.271 95.0379,483.937 96.5,484C 95.3281,482.132 95.4947,480.298 97,478.5C 98.9104,480.98 101.41,482.647 104.5,483.5C 105.624,485.369 106.457,487.369 107,489.5C 108.978,488.184 110.478,488.684 111.5,491C 108.345,491.981 108.012,493.315 110.5,495C 109.773,496.399 109.273,497.899 109,499.5C 107.255,498.044 105.422,496.711 103.5,495.5C 102.269,494.349 102.269,493.183 103.5,492C 99.551,491.193 99.551,490.693 103.5,490.5C 102.812,482.942 100.479,482.609 96.5,489.5C 97.269,492.104 98.9357,493.938 101.5,495C 100.829,495.986 100.829,497.153 101.5,498.5C 100.078,497.075 98.4113,496.075 96.5,495.5C 94.5,494.833 93.1667,493.5 92.5,491.5C 91.0892,489.086 89.0892,487.419 86.5,486.5C 85.4886,484.628 84.6552,482.628 84,480.5C 81.7492,479.588 79.5825,478.588 77.5,477.5C 70.7893,470.125 64.4559,462.458 58.5,454.5C 58.573,452.973 57.9063,451.973 56.5,451.5C 55.8333,451.5 55.5,451.167 55.5,450.5C 55.573,448.973 54.9063,447.973 53.5,447.5C 53.573,445.973 52.9063,444.973 51.5,444.5C 10.3642,383.03 -5.1358,315.363 5,241.5C 6.48698,231.55 8.65364,221.883 11.5,212.5C 12.9238,210.485 13.5905,208.152 13.5,205.5C 15.2766,202.495 16.2766,199.162 16.5,195.5C 16.767,193.035 17.4336,190.701 18.5,188.5C 19.6828,187.496 21.0161,186.662 22.5,186C 21.8641,183.606 21.8641,181.106 22.5,178.5C 24.9893,171.528 27.9893,164.861 31.5,158.5C 34.5187,158.028 35.5187,156.528 34.5,154C 36.1066,152.951 36.7733,151.451 36.5,149.5C 42.1687,138.152 48.8353,127.486 56.5,117.5C 58.2624,116.738 59.2624,115.404 59.5,113.5C 62.8207,108.848 66.4874,104.515 70.5,100.5C 72.5869,99.4154 73.9202,97.7488 74.5,95.5C 76.215,93.1182 78.215,91.1182 80.5,89.5C 83.5,87.1667 86.1667,84.5 88.5,81.5C 118.132,51.8282 153.132,30.4949 193.5,17.5C 199.166,16.6096 204.5,14.943 209.5,12.5C 220.461,8.90716 231.794,6.57383 243.5,5.5C 248.434,5.77086 253.1,5.10419 257.5,3.5C 258.167,3.5 258.833,3.5 259.5,3.5C 265.358,3.8222 271.025,3.48886 276.5,2.5C 301.151,1.38698 325.485,3.72031 349.5,9.5 Z"/></g>
<g><path style="opacity:1" fill="#e6bf4f" d="M 123.5,71.5 C 136.538,83.5372 148.871,96.2039 160.5,109.5C 142.806,126.527 125.473,143.86 108.5,161.5C 96.3053,149.14 84.3053,136.64 72.5,124C 89.3272,106.339 106.327,88.8393 123.5,71.5 Z"/></g>
<g><path style="opacity:1" fill="#a095ac" d="M 523.5,134.5 C 524.906,134.973 525.573,135.973 525.5,137.5C 524.094,137.027 523.427,136.027 523.5,134.5 Z"/></g>
<g><path style="opacity:1" fill="#675681" d="M 36.5,149.5 C 36.7733,151.451 36.1066,152.951 34.5,154C 35.5187,156.528 34.5187,158.028 31.5,158.5C 32.4097,155.008 34.0764,152.008 36.5,149.5 Z"/></g>
<g><path style="opacity:1" fill="#64557f" d="M 22.5,178.5 C 21.8641,181.106 21.8641,183.606 22.5,186C 21.0161,186.662 19.6828,187.496 18.5,188.5C 19.3208,184.873 20.6541,181.54 22.5,178.5 Z"/></g>
<g><path style="opacity:1" fill="#9689a7" d="M 551.5,192.5 C 552.924,194.515 553.59,196.848 553.5,199.5C 552.076,197.485 551.41,195.152 551.5,192.5 Z"/></g>
<g><path style="opacity:1" fill="#867d9b" d="M 16.5,195.5 C 16.2766,199.162 15.2766,202.495 13.5,205.5C 13.7234,201.838 14.7234,198.505 16.5,195.5 Z"/></g>
<g><path style="opacity:1" fill="#8f81a0" d="M 553.5,199.5 C 555.072,202.215 556.072,205.215 556.5,208.5C 554.528,205.916 553.528,202.916 553.5,199.5 Z"/></g>
<g><path style="opacity:1" fill="#807795" d="M 13.5,205.5 C 13.5905,208.152 12.9238,210.485 11.5,212.5C 11.4095,209.848 12.0762,207.515 13.5,205.5 Z"/></g>
<g><path style="opacity:1" fill="#8f82a0" d="M 558.5,217.5 C 559.913,220.219 560.58,223.219 560.5,226.5C 559.087,223.781 558.42,220.781 558.5,217.5 Z"/></g>
<g><path style="opacity:1" fill="#9287a1" d="M 562.5,237.5 C 564.307,245.265 565.474,253.265 566,261.5C 566.828,277.006 566.661,292.339 565.5,307.5C 566.128,284.081 565.128,260.748 562.5,237.5 Z"/></g>
<g><path style="opacity:1" fill="#e6c04e" d="M 20.5,247.5 C 37.8333,247.5 55.1667,247.5 72.5,247.5C 72.5,272.167 72.5,296.833 72.5,321.5C 55.1667,321.5 37.8333,321.5 20.5,321.5C 20.5,296.833 20.5,272.167 20.5,247.5 Z"/></g>
<g><path style="opacity:1" fill="#34205d" d="M 403.5,28.5 C 439.36,44.9321 470.36,67.9321 496.5,97.5C 496.427,99.0269 497.094,100.027 498.5,100.5C 508.371,110.704 516.704,122.037 523.5,134.5C 523.427,136.027 524.094,137.027 525.5,137.5C 536.555,154.613 545.221,172.947 551.5,192.5C 551.41,195.152 552.076,197.485 553.5,199.5C 553.528,202.916 554.528,205.916 556.5,208.5C 557.634,211.37 558.3,214.37 558.5,217.5C 558.42,220.781 559.087,223.781 560.5,226.5C 561.903,229.909 562.57,233.575 562.5,237.5C 565.128,260.748 566.128,284.081 565.5,307.5C 564.523,326.706 561.189,345.372 555.5,363.5C 554.778,363.918 554.278,364.584 554,365.5C 553.667,365.167 553.333,364.833 553,364.5C 549.331,371.773 546.165,379.606 543.5,388C 545.037,389.11 545.703,390.61 545.5,392.5C 538.975,409.222 530.641,424.888 520.5,439.5C 519.11,440.899 518.11,442.566 517.5,444.5C 516.189,447.135 514.522,449.469 512.5,451.5C 511.094,451.973 510.427,452.973 510.5,454.5C 510.167,455.5 509.5,456.167 508.5,456.5C 507.5,456.833 506.833,457.5 506.5,458.5C 503.464,457.039 502.464,457.873 503.5,461C 501.396,461.791 500.063,463.291 499.5,465.5C 496.402,465.131 493.402,465.964 490.5,468C 491.448,468.483 492.448,468.649 493.5,468.5C 493.5,470.5 493.5,472.5 493.5,474.5C 492.5,476.833 490.833,478.5 488.5,479.5C 487.094,479.973 486.427,480.973 486.5,482.5C 486.167,483.5 485.5,484.167 484.5,484.5C 483.5,484.833 482.833,485.5 482.5,486.5C 482.5,487.167 482.167,487.5 481.5,487.5C 479.596,487.738 478.262,488.738 477.5,490.5C 460.298,507.435 440.964,521.435 419.5,532.5C 417.973,532.427 416.973,533.094 416.5,534.5C 407.287,539.602 397.621,543.935 387.5,547.5C 381.364,548.544 375.364,550.21 369.5,552.5C 368.757,553.182 368.091,553.849 367.5,554.5C 354.265,559.319 340.598,562.319 326.5,563.5C 318.604,563.778 310.937,564.778 303.5,566.5C 291.165,567.796 278.832,567.796 266.5,566.5C 261.084,564.883 255.417,564.216 249.5,564.5C 248.833,564.5 248.167,564.5 247.5,564.5C 244.155,562.783 240.489,562.116 236.5,562.5C 231.206,562.375 226.206,561.375 221.5,559.5C 215.388,557.387 209.054,555.721 202.5,554.5C 198.498,552.39 194.165,551.057 189.5,550.5C 188.01,548.72 186.01,548.054 183.5,548.5C 181.597,548.204 179.93,547.537 178.5,546.5C 176.836,545.257 175.669,543.59 175,541.5C 173.301,542.406 171.467,542.739 169.5,542.5C 166.843,542.065 164.509,541.065 162.5,539.5C 161.486,538.326 160.153,537.66 158.5,537.5C 157.508,537.672 156.842,537.338 156.5,536.5C 155.486,535.326 154.153,534.66 152.5,534.5C 150.847,534.34 149.514,533.674 148.5,532.5C 148.027,531.094 147.027,530.427 145.5,530.5C 144.508,530.672 143.842,530.338 143.5,529.5C 143.027,528.094 142.027,527.427 140.5,527.5C 138.847,527.34 137.514,526.674 136.5,525.5C 135.738,523.738 134.404,522.738 132.5,522.5C 130.847,522.34 129.514,521.674 128.5,520.5C 127.738,518.738 126.404,517.738 124.5,517.5C 122.777,515.782 120.777,514.449 118.5,513.5C 117.421,511.457 115.754,510.124 113.5,509.5C 112.415,507.413 110.749,506.08 108.5,505.5C 107.415,503.413 105.749,502.08 103.5,501.5C 103.167,500.5 102.5,499.833 101.5,499.5C 101.5,499.167 101.5,498.833 101.5,498.5C 100.829,497.153 100.829,495.986 101.5,495C 98.9357,493.938 97.269,492.104 96.5,489.5C 100.479,482.609 102.812,482.942 103.5,490.5C 99.551,490.693 99.551,491.193 103.5,492C 102.269,493.183 102.269,494.349 103.5,495.5C 105.422,496.711 107.255,498.044 109,499.5C 109.273,497.899 109.773,496.399 110.5,495C 108.012,493.315 108.345,491.981 111.5,491C 110.478,488.684 108.978,488.184 107,489.5C 106.457,487.369 105.624,485.369 104.5,483.5C 101.41,482.647 98.9104,480.98 97,478.5C 95.4947,480.298 95.3281,482.132 96.5,484C 95.0379,483.937 93.7046,483.271 92.5,482C 93.5,479.667 94.5,477.333 95.5,475C 92.3417,473.339 90.0084,470.839 88.5,467.5C 86.7801,466.066 84.7801,465.233 82.5,465C 81.8095,463.933 81.3095,462.766 81,461.5C 80.4115,463.863 78.9115,464.863 76.5,464.5C 76.9209,462.09 78.2542,460.257 80.5,459C 79.3333,457.833 78.1667,456.667 77,455.5C 76.235,453.934 76.4017,452.601 77.5,451.5C 93.1319,466.632 108.632,481.965 124,497.5C 136.348,485.319 148.514,472.986 160.5,460.5C 156.145,455.813 151.812,451.146 147.5,446.5C 147.611,445.883 147.944,445.383 148.5,445C 144.085,439.874 139.419,435.041 134.5,430.5C 135,429.5 135.5,428.5 136,427.5C 138.009,429.543 140.009,431.543 142,433.5C 143.697,431.075 145.697,429.742 148,429.5C 149.88,431.953 152.213,433.953 155,435.5C 155.333,434.833 155.667,434.167 156,433.5C 157.419,434.46 158.919,435.293 160.5,436C 162.473,439.061 164.973,441.561 168,443.5C 168.333,443.167 168.667,442.833 169,442.5C 170.338,445.082 172.171,445.749 174.5,444.5C 198.535,460.509 224.869,471.009 253.5,476C 323.306,484.827 382.14,463.66 430,412.5C 478.473,352.788 490.139,286.455 465,213.5C 430.787,137.492 371.953,96.4921 288.5,90.5C 289.23,89.2876 290.23,88.2876 291.5,87.5C 291.291,86.914 290.957,86.414 290.5,86C 292.235,85.3486 293.902,85.5153 295.5,86.5C 296.192,85.9747 296.692,85.3081 297,84.5C 297.837,86.0074 299.004,86.5074 300.5,86C 300.167,85.6667 299.833,85.3333 299.5,85C 302.327,82.7784 304.993,80.445 307.5,78C 305.231,77.2419 303.064,77.4086 301,78.5C 300.833,78.1667 300.667,77.8333 300.5,77.5C 301.729,76.7189 303.062,76.2189 304.5,76C 304.167,75.6667 303.833,75.3333 303.5,75C 299.667,74.8333 295.833,74.6667 292,74.5C 287.74,74.5395 283.74,75.2061 280,76.5C 276.49,74.7815 272.656,73.9481 268.5,74C 286.338,73.8316 304.005,73.3316 321.5,72.5C 321.5,55.1667 321.5,37.8333 321.5,20.5C 320.167,20.5 318.833,20.5 317.5,20.5C 318.261,19.6091 319.261,18.9424 320.5,18.5C 323.812,20.7648 326.812,20.2648 329.5,17C 327.893,16.8849 326.393,17.3849 325,18.5C 323.274,18.0541 321.774,17.2208 320.5,16C 321.738,16.0773 322.738,15.9106 323.5,15.5C 321.089,14.912 319.089,13.7454 317.5,12C 318.833,11.3333 320.167,10.6667 321.5,10C 320.112,9.11066 320.278,8.61066 322,8.5C 324.791,11.6638 327.624,11.9971 330.5,9.5C 331.254,13.2695 333.087,13.2695 336,9.5C 337.204,10.8586 338.704,11.8586 340.5,12.5C 338.231,14.1413 335.898,14.9747 333.5,15C 336.922,16.4055 337.255,18.2388 334.5,20.5C 333.269,19.3493 333.269,18.1827 334.5,17C 333.833,16.3333 333.167,16.3333 332.5,17C 330.874,19.6277 328.874,21.961 326.5,24C 327.925,25.7141 327.592,27.0475 325.5,28C 326.833,28.6667 328.167,28.6667 329.5,28C 333.007,25.5272 336.507,22.3605 340,18.5C 339,21.5 338,24.5 337,27.5C 337.953,25.5448 339.287,23.8782 341,22.5C 341.5,23 342,23.5 342.5,24C 340.842,24.7253 340.342,25.892 341,27.5C 344.933,25.116 345.433,25.9493 342.5,30C 343.167,30.6667 343.833,30.6667 344.5,30C 345.155,28.5134 346.155,27.3467 347.5,26.5C 347.833,26.8333 348.167,27.1667 348.5,27.5C 346.444,29.93 345.277,32.5966 345,35.5C 347,32.8333 349,30.1667 351,27.5C 351.495,25.5273 351.662,23.5273 351.5,21.5C 352.873,21.6567 354.207,21.49 355.5,21C 358.253,17.4957 359.42,17.6624 359,21.5C 360.682,20.1354 360.849,18.6354 359.5,17C 361.167,16.1667 362.833,15.3333 364.5,14.5C 365.192,15.0253 365.692,15.6919 366,16.5C 366.718,15.5494 367.551,15.3828 368.5,16C 368.507,17.5827 368.174,19.2494 367.5,21C 368.738,20.9227 369.738,21.0894 370.5,21.5C 368.314,23.9608 365.98,26.2942 363.5,28.5C 364.651,29.731 365.817,29.731 367,28.5C 367.265,30.1626 366.765,31.6626 365.5,33C 366,33.1667 366.5,33.3333 367,33.5C 368.977,31.1977 371.31,29.1977 374,27.5C 374.167,28.1667 374.333,28.8333 374.5,29.5C 373.751,31.0356 372.751,32.3689 371.5,33.5C 372.002,34.521 372.668,34.6877 373.5,34C 375.019,32.6487 376.352,31.1487 377.5,29.5C 378.5,29.8333 379.167,30.5 379.5,31.5C 378.167,32.5 376.833,33.5 375.5,34.5C 377.936,35.3319 380.103,34.6653 382,32.5C 383.248,26.6241 387.081,23.9574 393.5,24.5C 394.035,30.3542 395.368,31.0209 397.5,26.5C 399.179,28.1045 401.179,28.7711 403.5,28.5 Z"/></g>
<g><path style="opacity:1" fill="#e7c150" d="M 496.5,248.5 C 513.5,248.5 530.5,248.5 547.5,248.5C 547.5,272.833 547.5,297.167 547.5,321.5C 530.5,321.5 513.5,321.5 496.5,321.5C 496.5,297.167 496.5,272.833 496.5,248.5 Z"/></g>
<g><path style="opacity:1" fill="#bf9e54" d="M 496.5,248.5 C 513.659,247.503 530.992,247.17 548.5,247.5C 548.831,272.339 548.498,297.006 547.5,321.5C 547.5,297.167 547.5,272.833 547.5,248.5C 530.5,248.5 513.5,248.5 496.5,248.5 Z"/></g>
<g><path style="opacity:1" fill="#e5bf4f" d="M 444.5,71.5 C 462.509,88.5092 479.843,106.176 496.5,124.5C 484.514,136.986 472.348,149.319 460,161.5C 443.129,143.629 425.962,126.129 408.5,109C 420.327,96.3398 432.327,83.8398 444.5,71.5 Z"/></g>
<g><path style="opacity:1" fill="#543f73" d="M 555.5,363.5 C 553.334,373.668 550.001,383.334 545.5,392.5C 545.703,390.61 545.037,389.11 543.5,388C 546.165,379.606 549.331,371.773 553,364.5C 553.333,364.833 553.667,365.167 554,365.5C 554.278,364.584 554.778,363.918 555.5,363.5 Z"/></g>
<g><path style="opacity:1" fill="#e5bf4d" d="M 147.5,446.5 C 151.812,451.146 156.145,455.813 160.5,460.5C 148.514,472.986 136.348,485.319 124,497.5C 108.632,481.965 93.1319,466.632 77.5,451.5C 76.2073,449.704 74.7073,448.037 73,446.5C 72.3333,445.5 72.3333,444.5 73,443.5C 84.7079,431.458 96.7079,419.791 109,408.5C 121.636,421.302 134.469,433.968 147.5,446.5 Z"/></g>
<g><path style="opacity:1" fill="#e5bf4d" d="M 458.5,408.5 C 459.922,408.709 461.255,409.209 462.5,410C 473.525,422.024 484.858,433.691 496.5,445C 479.736,462.931 462.402,480.431 444.5,497.5C 432.305,485.14 420.305,472.64 408.5,460C 425.665,443.334 442.332,426.168 458.5,408.5 Z"/></g>
<g><path style="opacity:1" fill="#34205d" d="M 266.5,105.5 C 328.877,101.959 380.71,123.292 422,169.5C 466.524,226.166 475.524,288.166 449,355.5C 412.636,429.283 353.136,465.116 270.5,463C 207.954,456.163 160.454,425.997 128,372.5C 105.152,329.698 99.4857,284.698 111,237.5C 129.674,176.826 168.841,135.66 228.5,114C 241.076,110.188 253.743,107.354 266.5,105.5 Z"/></g>
<g><path style="opacity:1" fill="#e6c04f" d="M 271.5,129.5 C 351.042,128.827 404.875,165.493 433,239.5C 449.704,308.055 430.871,364.555 376.5,409C 321.357,446.068 264.357,449.068 205.5,418C 150.689,382.544 125.522,332.044 130,266.5C 141.321,199.842 179.154,156.009 243.5,135C 252.957,133.075 262.29,131.242 271.5,129.5 Z"/></g>
<g><path style="opacity:1" fill="#3e341b" d="M 321.5,388.5 C 322.289,388.783 322.956,389.283 323.5,390C 317.984,390.817 312.65,390.651 307.5,389.5C 312.363,389.819 317.03,389.486 321.5,388.5 Z"/></g>
<g><path style="opacity:1" fill="#010100" d="M 321.5,388.5 C 317.03,389.486 312.363,389.819 307.5,389.5C 286.817,389.478 266.15,389.644 245.5,390C 263.784,374.264 274.284,354.431 277,330.5C 258.401,352.753 235.901,357.919 209.5,346C 188.864,329.312 183.364,308.479 193,283.5C 198.508,271.807 205.508,261.14 214,251.5C 232.028,233.138 250.362,215.138 269,197.5C 274.383,191.622 279.55,185.622 284.5,179.5C 288.562,183.943 292.395,188.61 296,193.5C 316.419,213.85 336.752,234.184 357,254.5C 368.053,266.935 375.72,281.268 380,297.5C 382.017,325.794 369.517,343.961 342.5,352C 321.589,354.292 304.756,347.125 292,330.5C 294.7,353.569 304.534,372.902 321.5,388.5 Z"/></g>
<g><path style="opacity:1" fill="#dfdfdb" d="M 520.5,439.5 C 520.727,441.933 519.727,443.599 517.5,444.5C 518.11,442.566 519.11,440.899 520.5,439.5 Z"/></g>
<g><path style="opacity:1" fill="#dbd7d9" d="M 51.5,444.5 C 52.9063,444.973 53.573,445.973 53.5,447.5C 52.0937,447.027 51.427,446.027 51.5,444.5 Z"/></g>
<g><path style="opacity:1" fill="#e1dcde" d="M 53.5,447.5 C 54.9063,447.973 55.573,448.973 55.5,450.5C 54.0937,450.027 53.427,449.027 53.5,447.5 Z"/></g>
<g><path style="opacity:1" fill="#d7d3d4" d="M 56.5,451.5 C 57.9063,451.973 58.573,452.973 58.5,454.5C 57.0937,454.027 56.427,453.027 56.5,451.5 Z"/></g>
<g><path style="opacity:1" fill="#e6e7e5" d="M 512.5,451.5 C 512.715,453.179 512.048,454.179 510.5,454.5C 510.427,452.973 511.094,451.973 512.5,451.5 Z"/></g>
<g><path style="opacity:1" fill="#d4d1d3" d="M 508.5,456.5 C 508.573,458.027 507.906,459.027 506.5,459.5C 506.5,459.167 506.5,458.833 506.5,458.5C 506.833,457.5 507.5,456.833 508.5,456.5 Z"/></g>
<g><path style="opacity:1" fill="#523f74" d="M 506.5,458.5 C 506.5,458.833 506.5,459.167 506.5,459.5C 502.511,464.821 498.178,469.821 493.5,474.5C 493.5,472.5 493.5,470.5 493.5,468.5C 492.448,468.649 491.448,468.483 490.5,468C 493.402,465.964 496.402,465.131 499.5,465.5C 500.063,463.291 501.396,461.791 503.5,461C 502.464,457.873 503.464,457.039 506.5,458.5 Z"/></g>
<g><path style="opacity:1" fill="#786890" d="M 77.5,477.5 C 79.5825,478.588 81.7492,479.588 84,480.5C 84.6552,482.628 85.4886,484.628 86.5,486.5C 83.1667,483.833 80.1667,480.833 77.5,477.5 Z"/></g>
<g><path style="opacity:1" fill="#e2dfdf" d="M 488.5,479.5 C 488.715,481.179 488.048,482.179 486.5,482.5C 486.427,480.973 487.094,479.973 488.5,479.5 Z"/></g>
<g><path style="opacity:1" fill="#eef4ee" d="M 484.5,484.5 C 484.5,485.833 483.833,486.5 482.5,486.5C 482.833,485.5 483.5,484.833 484.5,484.5 Z"/></g>
<g><path style="opacity:1" fill="#aaa1b5" d="M 86.5,486.5 C 89.0892,487.419 91.0892,489.086 92.5,491.5C 89.9108,490.581 87.9108,488.914 86.5,486.5 Z"/></g>
<g><path style="opacity:1" fill="#c8c5cf" d="M 481.5,487.5 C 480.738,489.262 479.404,490.262 477.5,490.5C 478.262,488.738 479.596,487.738 481.5,487.5 Z"/></g>
<g><path style="opacity:1" fill="#9a91aa" d="M 96.5,495.5 C 98.4113,496.075 100.078,497.075 101.5,498.5C 101.5,498.833 101.5,499.167 101.5,499.5C 99.2512,498.92 97.5846,497.587 96.5,495.5 Z"/></g>
<g><path style="opacity:1" fill="#e7c04c" d="M 320.5,496.5 C 320.5,513.5 320.5,530.5 320.5,547.5C 296.167,547.5 271.833,547.5 247.5,547.5C 247.5,530.5 247.5,513.5 247.5,496.5C 271.833,496.5 296.167,496.5 320.5,496.5 Z"/></g>
<g><path style="opacity:1" fill="#d0cdd3" d="M 101.5,499.5 C 102.5,499.833 103.167,500.5 103.5,501.5C 102.167,501.5 101.5,500.833 101.5,499.5 Z"/></g>
<g><path style="opacity:1" fill="#a29bae" d="M 103.5,501.5 C 105.749,502.08 107.415,503.413 108.5,505.5C 106.251,504.92 104.585,503.587 103.5,501.5 Z"/></g>
<g><path style="opacity:1" fill="#afa9b9" d="M 108.5,505.5 C 110.749,506.08 112.415,507.413 113.5,509.5C 111.251,508.92 109.585,507.587 108.5,505.5 Z"/></g>
<g><path style="opacity:1" fill="#dbd8dc" d="M 113.5,509.5 C 115.754,510.124 117.421,511.457 118.5,513.5C 116.205,512.864 114.539,511.531 113.5,509.5 Z"/></g>
<g><path style="opacity:1" fill="#dfddde" d="M 118.5,513.5 C 120.777,514.449 122.777,515.782 124.5,517.5C 121.708,517.378 119.708,516.044 118.5,513.5 Z"/></g>
<g><path style="opacity:1" fill="#c6c4ca" d="M 124.5,517.5 C 126.404,517.738 127.738,518.738 128.5,520.5C 126.596,520.262 125.262,519.262 124.5,517.5 Z"/></g>
<g><path style="opacity:1" fill="#aca6b4" d="M 132.5,522.5 C 134.404,522.738 135.738,523.738 136.5,525.5C 134.596,525.262 133.262,524.262 132.5,522.5 Z"/></g>
<g><path style="opacity:1" fill="#b5aebb" d="M 140.5,527.5 C 142.027,527.427 143.027,528.094 143.5,529.5C 141.973,529.573 140.973,528.906 140.5,527.5 Z"/></g>
<g><path style="opacity:1" fill="#cbc8cc" d="M 145.5,530.5 C 147.027,530.427 148.027,531.094 148.5,532.5C 146.973,532.573 145.973,531.906 145.5,530.5 Z"/></g>
<g><path style="opacity:1" fill="#d7d8d9" d="M 419.5,532.5 C 419.027,533.906 418.027,534.573 416.5,534.5C 416.973,533.094 417.973,532.427 419.5,532.5 Z"/></g>
<g><path style="opacity:1" fill="#dcd8d9" d="M 152.5,534.5 C 154.153,534.66 155.486,535.326 156.5,536.5C 154.62,536.771 153.287,536.104 152.5,534.5 Z"/></g>
<g><path style="opacity:1" fill="#d9d6d7" d="M 158.5,537.5 C 160.153,537.66 161.486,538.326 162.5,539.5C 160.62,539.771 159.287,539.104 158.5,537.5 Z"/></g>
<g><path style="opacity:1" fill="#74638b" d="M 178.5,546.5 C 175.088,545.925 172.088,544.592 169.5,542.5C 171.467,542.739 173.301,542.406 175,541.5C 175.669,543.59 176.836,545.257 178.5,546.5 Z"/></g>
<g><path style="opacity:1" fill="#b6954e" d="M 320.5,496.5 C 321.497,513.659 321.83,530.992 321.5,548.5C 296.661,548.831 271.994,548.498 247.5,547.5C 271.833,547.5 296.167,547.5 320.5,547.5C 320.5,530.5 320.5,513.5 320.5,496.5 Z"/></g>
<g><path style="opacity:1" fill="#8c819c" d="M 183.5,548.5 C 186.01,548.054 188.01,548.72 189.5,550.5C 187.214,550.405 185.214,549.738 183.5,548.5 Z"/></g>
<g><path style="opacity:1" fill="#817195" d="M 387.5,547.5 C 381.198,550.602 374.531,552.936 367.5,554.5C 368.091,553.849 368.757,553.182 369.5,552.5C 375.364,550.21 381.364,548.544 387.5,547.5 Z"/></g>
<g><path style="opacity:1" fill="#9c93aa" d="M 189.5,550.5 C 194.165,551.057 198.498,552.39 202.5,554.5C 197.835,553.943 193.502,552.61 189.5,550.5 Z"/></g>
<g><path style="opacity:1" fill="#9f96ac" d="M 202.5,554.5 C 209.054,555.721 215.388,557.387 221.5,559.5C 214.781,558.905 208.448,557.238 202.5,554.5 Z"/></g>
<g><path style="opacity:1" fill="#89809c" d="M 236.5,562.5 C 240.489,562.116 244.155,562.783 247.5,564.5C 243.613,564.354 239.946,563.687 236.5,562.5 Z"/></g>
<g><path style="opacity:1" fill="#c5c4cb" d="M 326.5,563.5 C 319.073,565.291 311.407,566.291 303.5,566.5C 310.937,564.778 318.604,563.778 326.5,563.5 Z"/></g>
<g><path style="opacity:1" fill="#b1aebc" d="M 249.5,564.5 C 255.417,564.216 261.084,564.883 266.5,566.5C 260.627,566.404 254.96,565.737 249.5,564.5 Z"/></g>
</svg>
